<svg xmlns="http://www.w3.org/2000/svg" xmlns:xlink="http://www.w3.org/1999/xlink" width="500" zoomAndPan="magnify" viewBox="0 0 375 374.999991" height="500" preserveAspectRatio="xMidYMid meet" version="1.0"><defs><clipPath id="59a54ff45d"><path d="M 2 2 L 373 2 L 373 373 L 2 373 Z M 2 2 " clip-rule="nonzero"/></clipPath><clipPath id="6984d9ecfa"><path d="M 187.5 2 C 85.050781 2 2 85.050781 2 187.5 C 2 289.949219 85.050781 373 187.5 373 C 289.949219 373 373 289.949219 373 187.5 C 373 85.050781 289.949219 2 187.5 2 Z M 187.5 2 " clip-rule="nonzero"/></clipPath><clipPath id="c5850a8271"><path d="M 23 16 L 354 16 L 354 359.101562 L 23 359.101562 Z M 23 16 " clip-rule="nonzero"/></clipPath></defs><g clip-path="url(#59a54ff45d)"><g clip-path="url(#6984d9ecfa)"><path fill="#000000" d="M 2 2 L 373 2 L 373 373 L 2 373 Z M 2 2 " fill-opacity="1" fill-rule="nonzero"/></g></g><path fill="#ffffff" d="M 151.351562 298.554688 C 158.410156 289.328125 170.351562 285.699219 181.15625 281.429688 C 191.960938 277.160156 203.421875 270.441406 206.15625 259.148438 C 203.320312 263.40625 199.113281 266.308594 194.390625 268.34375 C 206.234375 258.425781 210.960938 241.894531 214.707031 226.589844 C 217.460938 215.339844 220.214844 204.089844 222.964844 192.835938 C 220.703125 195.890625 218.0625 198.609375 214.984375 200.832031 C 214.289062 201.335938 218.445312 194.703125 223.265625 184.390625 C 225.289062 179.863281 226.976562 175.167969 228.203125 171.441406 C 229.492188 166.167969 230.78125 160.894531 232.074219 155.621094 C 226.90625 163.789062 220.203125 170.960938 211.570312 174.605469 C 210.519531 175.046875 220.664062 165.117188 230.605469 150.46875 L 223.269531 156.175781 C 224.160156 155.628906 225.46875 154.070312 226.972656 151.996094 C 228.449219 149.855469 231.46875 143.894531 232.167969 142.5 C 233.457031 139.464844 234.578125 136.390625 235.269531 134.347656 C 232.046875 138.152344 229.390625 141.101562 229.390625 141.101562 C 231.746094 138.535156 234.019531 135.265625 236.171875 131.71875 C 236.761719 130.601562 237.40625 129.0625 238.039062 127.40625 C 233.902344 132.339844 229.339844 137.101562 225.890625 140.566406 C 225.375 141.179688 224.867188 141.761719 224.367188 142.3125 L 224.316406 142.125 C 224.820312 141.628906 225.316406 141.136719 225.890625 140.566406 C 231.347656 134.007812 237.460938 123.746094 241.769531 115.992188 C 241.863281 115.613281 241.953125 115.234375 242.046875 114.855469 C 236.449219 122.953125 229.328125 130.304688 229.328125 130.304688 C 237.230469 121.828125 242.699219 108.667969 245.53125 100.613281 C 246.882812 95.09375 248.234375 89.574219 249.585938 84.050781 C 251.015625 78.207031 251.9375 70.835938 247.085938 67.277344 C 241.503906 63.1875 233.894531 67.949219 228.703125 72.523438 C 210.484375 88.578125 192.105469 104.804688 177.800781 124.425781 C 163.492188 144.046875 153.390625 167.621094 154.003906 191.898438 C 150.046875 182.652344 149.28125 172.074219 151.871094 162.351562 C 122.242188 186.171875 113.25 231.996094 131.402344 265.347656 L 130.246094 270.359375 C 124.433594 266.019531 121.007812 258.222656 119.414062 250.832031 C 117.339844 241.226562 116.914062 230.871094 111.570312 222.625 C 114.601562 234.820312 112.777344 247.664062 113.992188 260.171875 C 114.96875 270.203125 118.859375 280.859375 126.417969 286.953125 L 126.390625 287.070312 L 127.132812 289.378906 C 113.097656 285.328125 101.09375 274.425781 96.089844 260.660156 C 97.53125 279.152344 112.121094 295.726562 130.117188 299.921875 C 159.488281 214.082031 208.828125 132.378906 208.828125 132.378906 C 170.070312 199.644531 143.652344 277.414062 134.085938 307.742188 C 137.199219 311.53125 141.761719 313.652344 147.320312 313.941406 C 155.371094 314.359375 163.191406 311.441406 170.632812 308.339844 C 178.078125 305.242188 185.609375 301.863281 193.648438 301.289062 C 181.332031 293.097656 164.621094 292.015625 151.351562 298.554688 " fill-opacity="1" fill-rule="nonzero"/><path fill="#ffffff" d="M 203.867188 130.363281 C 203.867188 130.363281 131.527344 250.144531 109.890625 352.011719 L 125.144531 318.789062 C 125.144531 318.789062 154.496094 216.050781 203.867188 130.363281 " fill-opacity="1" fill-rule="nonzero"/><g clip-path="url(#c5850a8271)"><path fill="#ffffff" d="M 161.65625 334.945312 C 167.925781 333.597656 174.472656 332.5625 180.742188 331.539062 C 194.125 329.46875 205.796875 331.953125 219.398438 329.832031 C 227.921875 328.4375 236.496094 327.457031 245.15625 325.605469 C 247.316406 325.171875 249.429688 324.519531 251.582031 323.972656 C 253.734375 323.40625 255.890625 322.832031 257.976562 322.015625 C 260.082031 321.257812 262.191406 320.46875 264.296875 319.644531 C 266.355469 318.707031 268.390625 317.691406 270.425781 316.644531 L 273.21875 315.191406 L 275.917969 313.5625 L 281.308594 310.285156 L 286.484375 306.664062 L 289.070312 304.851562 L 291.546875 302.882812 L 296.476562 298.933594 L 301.171875 294.707031 C 304.375 291.96875 307.171875 288.792969 310.164062 285.84375 C 315.773438 279.574219 321.242188 273.171875 325.902344 266.1875 C 328.414062 262.824219 330.460938 259.15625 332.738281 255.648438 C 333.828125 253.859375 334.773438 251.988281 335.8125 250.175781 C 336.824219 248.34375 337.902344 246.542969 338.761719 244.640625 C 345.84375 230.550781 350.414062 215.511719 352.394531 200.359375 C 354.351562 185.195312 354.003906 169.960938 351.675781 155.089844 C 349.394531 140.199219 344.84375 125.738281 338.59375 111.914062 C 332.292969 98.128906 324.132812 84.878906 313.878906 72.992188 C 308.042969 65.957031 301.132812 59.464844 293.71875 53.277344 C 286.214844 47.195312 277.957031 41.769531 269.285156 36.949219 C 260.5625 32.226562 251.339844 28.335938 241.945312 25.175781 C 232.515625 22.109375 222.863281 20.003906 213.324219 18.628906 C 199.410156 16.734375 177.710938 15.59375 157.230469 19.824219 C 136.648438 23.445312 117.921875 31.988281 108.035156 38.753906 C 122.023438 30.980469 137.675781 25.152344 153.824219 22.113281 C 169.957031 19.039062 186.507812 18.566406 202.085938 20.359375 C 167.667969 17.929688 132.191406 26.597656 102.3125 44.199219 C 87.410156 53.046875 73.625 63.804688 62.164062 76.558594 C 50.675781 89.238281 41.09375 103.523438 34.429688 118.734375 C 47.226562 90.296875 69.207031 66.035156 95.484375 49.199219 C 121.84375 32.402344 152.777344 22.96875 183.578125 22.632812 C 214.367188 22.519531 244.449219 31.273438 269.269531 46.828125 C 281.707031 54.554688 292.902344 63.863281 302.363281 74.378906 C 311.773438 84.949219 319.378906 96.695312 324.984375 109 C 321.417969 101.960938 316.941406 95.25 312.070312 88.660156 C 309.496094 85.472656 306.992188 82.164062 304.101562 79.144531 C 301.371094 75.976562 298.300781 73.089844 295.257812 70.117188 C 282.792969 58.59375 268.085938 48.589844 251.695312 41.3125 C 247.65625 39.355469 243.390625 37.886719 239.179688 36.214844 C 234.867188 34.855469 230.578125 33.296875 226.128906 32.25 C 221.734375 30.980469 217.222656 30.164062 212.707031 29.246094 C 210.4375 28.859375 208.148438 28.578125 205.863281 28.238281 C 203.582031 27.863281 201.277344 27.660156 198.96875 27.488281 C 180.492188 25.726562 161.539062 27.683594 143.402344 32.46875 C 107.089844 42.179688 74.378906 64.667969 52.976562 93.921875 C 42.378906 108.609375 34.449219 124.746094 29.769531 141.234375 C 29.1875 143.296875 28.574219 145.335938 28.042969 147.390625 C 27.589844 149.464844 27.140625 151.527344 26.691406 153.585938 L 26.027344 156.660156 L 25.546875 159.757812 C 25.238281 161.8125 24.929688 163.863281 24.621094 165.90625 C 24.210938 170.011719 23.789062 174.070312 23.625 178.105469 C 23.570312 182.148438 23.335938 186.125 23.609375 190.074219 C 23.792969 199.636719 25.582031 210.128906 27.625 217.765625 C 20.617188 187.804688 23.429688 152.28125 38.425781 120.121094 C 53.359375 87.957031 81.066406 60.398438 114.535156 44.746094 C 122.894531 40.839844 131.503906 37.417969 140.402344 34.988281 C 144.796875 33.597656 149.328125 32.734375 153.804688 31.710938 C 156.054688 31.253906 158.339844 30.957031 160.597656 30.578125 C 162.859375 30.191406 165.125 29.851562 167.410156 29.683594 L 174.238281 29.03125 L 181.074219 28.808594 L 184.484375 28.71875 L 187.894531 28.820312 C 190.164062 28.921875 192.429688 28.894531 194.683594 29.101562 C 203.722656 29.707031 212.609375 31.21875 221.289062 33.203125 C 256.007812 41.574219 286.257812 61.316406 306.453125 86 C 315.679688 97.371094 323.273438 110 328.675781 123.542969 C 334.058594 137.078125 337.652344 151.320312 339.058594 165.765625 C 340.375 180.210938 339.777344 194.816406 336.894531 208.953125 C 333.902344 223.066406 328.816406 236.644531 321.527344 249.1875 C 313.230469 262.566406 302.800781 274.769531 290.511719 284.636719 C 287.464844 287.300781 284.066406 289.503906 280.824219 291.90625 L 275.707031 295.136719 L 273.136719 296.738281 L 270.476562 298.171875 C 263.476562 302.191406 255.988281 305.222656 248.410156 307.8125 L 242.660156 309.570312 C 240.738281 310.125 238.769531 310.480469 236.828125 310.957031 L 233.90625 311.636719 C 232.921875 311.832031 231.90625 311.96875 230.910156 312.140625 C 228.894531 312.441406 226.933594 312.851562 224.875 313.082031 C 216.746094 314.179688 208.25 314.699219 199.609375 315.335938 C 191.957031 315.863281 182.484375 316.464844 172.410156 317.988281 C 162.300781 319.382812 151.492188 322.28125 142.046875 326.6875 C 137.3125 328.910156 132.894531 331.519531 129.003906 334.371094 C 125.09375 337.191406 121.820312 340.433594 119.164062 343.515625 C 113.886719 349.835938 111.667969 355.957031 111.558594 359.382812 C 114.199219 354.890625 117.46875 350.449219 121.304688 346.617188 C 125.125 342.777344 129.464844 339.558594 133.832031 337.253906 C 130.898438 339.636719 127.792969 342.625 124.8125 345.792969 C 127.894531 343.027344 131.773438 340.617188 134.914062 338.40625 C 133.605469 339.320312 132.367188 340.363281 131.375 341.308594 C 130.359375 342.222656 129.632812 343.101562 129.359375 343.738281 C 133.296875 340.941406 138.886719 336.785156 142.3125 334.871094 C 143.285156 334.273438 146.039062 332.609375 149.019531 331.140625 C 151.996094 329.667969 155.1875 328.425781 156.675781 328.148438 C 153.066406 329.808594 149.042969 331.695312 145.414062 333.894531 C 141.792969 336.097656 138.503906 338.421875 136.261719 340.660156 C 137.390625 340.015625 138.511719 339.375 139.671875 338.816406 C 140.816406 338.230469 141.953125 337.652344 143.148438 337.226562 C 141.820312 338.101562 139.90625 339.367188 138.136719 340.53125 C 136.4375 341.785156 134.917969 342.929688 134.507812 343.71875 C 139.746094 340.257812 144.714844 337.453125 151 335.28125 C 156.097656 333.535156 160.824219 332.421875 165.839844 331.070312 C 159.851562 332.761719 152.042969 335.582031 148.601562 338.179688 C 151.269531 337.382812 154.007812 336.324219 156.746094 335.402344 C 156.441406 335.605469 156.277344 335.78125 156.246094 335.925781 C 157.457031 335.527344 159.125 335.242188 160.40625 334.890625 C 160.484375 335.054688 160.808594 335.152344 160.609375 335.398438 C 160.609375 335.261719 160.59375 335.132812 160.582031 335.003906 L 161.65625 334.945312 " fill-opacity="1" fill-rule="nonzero"/></g></svg>