<?xml version="1.0" encoding="UTF-8"?>
<svg version="1.1" xmlns="http://www.w3.org/2000/svg" width="512" height="512">
<path d="M0 0 C4.07371199 0.00914608 8.14735849 -0.00496601 12.22105694 -0.01591969 C20.17765482 -0.03360871 28.13410087 -0.02990815 36.09070444 -0.01826912 C42.56324498 -0.00919692 49.03574329 -0.00802708 55.50828838 -0.01236439 C56.8956167 -0.01328379 56.8956167 -0.01328379 58.31097186 -0.01422176 C60.19047309 -0.01550079 62.06997432 -0.01679765 63.94947553 -0.01811212 C81.53031666 -0.02948975 99.11107405 -0.0164486 116.69190145 0.00508934 C131.74277919 0.02295775 146.79353347 0.01985285 161.84440899 0.0014143 C179.36683906 -0.02004238 196.88919593 -0.02839137 214.41163731 -0.01613665 C216.28382014 -0.01486259 218.15600299 -0.0136051 220.02818584 -0.01236439 C220.9490843 -0.01174729 221.86998275 -0.01113018 222.81878722 -0.01049438 C229.27568975 -0.00705584 235.73254545 -0.01283737 242.18944073 -0.0222826 C250.06951944 -0.03355746 257.949439 -0.03034815 265.82949972 -0.00915962 C269.84197168 0.00127756 273.8541793 0.0055997 277.86664867 -0.00775623 C309.72328262 -0.10471402 337.99599089 4.32507475 361.76823711 27.52289867 C362.61386211 28.32727367 363.45948711 29.13164867 364.33073711 29.96039867 C365.53729961 31.22883617 365.53729961 31.22883617 366.76823711 32.52289867 C367.76597149 33.52836742 367.76597149 33.52836742 368.78386211 34.55414867 C391.33652473 58.18074761 394.3945222 87.69469143 394.29113579 118.75466156 C394.2819897 122.82837355 394.2961018 126.90202005 394.30705547 130.9757185 C394.3247445 138.93231638 394.32104394 146.88876243 394.30940491 154.845366 C394.30033271 161.31790654 394.29916287 167.79040485 394.30350018 174.26294994 C394.30411311 175.18783549 394.30472604 176.11272104 394.30535755 177.06563342 C394.30663658 178.94513465 394.30793344 180.82463588 394.30924791 182.70413709 C394.32062553 200.28497822 394.30758439 217.86573561 394.28604645 235.44656301 C394.26817804 250.49744075 394.27128294 265.54819503 394.28972149 280.59907055 C394.31117816 298.12150062 394.31952716 315.64385749 394.30727243 333.16629887 C394.30599838 335.0384817 394.30474089 336.91066455 394.30350018 338.7828474 C394.30288307 339.70374586 394.30226597 340.62464431 394.30163017 341.57344878 C394.29819163 348.03035131 394.30397316 354.48720701 394.31341839 360.94410229 C394.32469325 368.824181 394.32148393 376.70410056 394.30029541 384.58416128 C394.28985823 388.59663324 394.28553609 392.60884086 394.29889202 396.62131023 C394.3958498 428.47794418 389.96606104 456.75065245 366.76823711 480.52289867 C365.96386211 481.36852367 365.15948711 482.21414867 364.33073711 483.08539867 C363.48511211 483.88977367 362.63948711 484.69414867 361.76823711 485.52289867 C361.09792461 486.18805492 360.42761211 486.85321117 359.73698711 487.53852367 C336.11038818 510.09118629 306.59644436 513.14918376 275.53647423 513.04579735 C271.46276224 513.03665126 267.38911574 513.05076336 263.31541729 513.06171703 C255.35881941 513.07940606 247.40237336 513.0757055 239.44576979 513.06406647 C232.97322924 513.05499427 226.50073094 513.05382443 220.02818584 513.05816174 C218.64085753 513.05908113 218.64085753 513.05908113 217.22550237 513.06001911 C215.34600114 513.06129814 213.46649991 513.062595 211.5869987 513.06390947 C194.00615757 513.07528709 176.42540018 513.06224595 158.84457278 513.04070801 C143.79369504 513.0228396 128.74294075 513.0259445 113.69206524 513.04438305 C96.16963517 513.06583972 78.6472783 513.07418872 61.12483692 513.06193399 C59.25265409 513.06065994 57.38047124 513.05940245 55.50828838 513.05816174 C54.58738993 513.05754463 53.66649148 513.05692753 52.71768701 513.05629173 C46.26078448 513.05285319 39.80392878 513.05863472 33.3470335 513.06807995 C25.46695479 513.07935481 17.58703523 513.07614549 9.70697451 513.05495697 C5.69450255 513.04451979 1.68229493 513.04019765 -2.33017445 513.05355358 C-34.18680839 513.15051136 -62.45951666 508.7207226 -86.23176289 485.52289867 C-87.50020039 484.31633617 -87.50020039 484.31633617 -88.79426289 483.08539867 C-89.59863789 482.23977367 -90.40301289 481.39414867 -91.23176289 480.52289867 C-91.89691914 479.85258617 -92.56207539 479.18227367 -93.24738789 478.49164867 C-115.8000505 454.86504974 -118.85804797 425.35110592 -118.75466156 394.29113579 C-118.74551548 390.2174238 -118.75962757 386.1437773 -118.77058125 382.07007885 C-118.78827027 374.11348097 -118.78456971 366.15703492 -118.77293068 358.20043135 C-118.76385848 351.7278908 -118.76268864 345.2553925 -118.76702595 338.7828474 C-118.76763888 337.85796186 -118.76825181 336.93307631 -118.76888332 335.98016393 C-118.77016235 334.1006627 -118.77145921 332.22116147 -118.77277368 330.34166026 C-118.78415131 312.76081913 -118.77111016 295.18006174 -118.74957222 277.59923434 C-118.73170381 262.5483566 -118.73480871 247.49760231 -118.75324726 232.4467268 C-118.77470394 214.92429673 -118.78305293 197.40193986 -118.77079821 179.87949848 C-118.76952415 178.00731565 -118.76826666 176.1351328 -118.76702595 174.26294994 C-118.76640885 173.34205149 -118.76579174 172.42115304 -118.76515594 171.47234857 C-118.7617174 165.01544604 -118.76749893 158.55859034 -118.77694416 152.10169506 C-118.78821902 144.22161635 -118.78500971 136.34169679 -118.76382118 128.46163607 C-118.753384 124.44916411 -118.74906186 120.43695649 -118.76241779 116.42448711 C-118.85937558 84.56785317 -114.42958681 56.2951449 -91.23176289 32.52289867 C-90.42738789 31.67727367 -89.62301289 30.83164867 -88.79426289 29.96039867 C-87.94863789 29.15602367 -87.10301289 28.35164867 -86.23176289 27.52289867 C-85.56145039 26.85774242 -84.89113789 26.19258617 -84.20051289 25.50727367 C-60.57391395 2.95461106 -31.05997013 -0.10338641 0 0 Z " fill="#000000" transform="translate(118.23176288604736,-0.5228986740112305)"/>
<path d="M0 0 C3.63347838 1.48642297 6.0246369 3.58737075 8.15513802 6.90581322 C10.11607931 11.76646197 9.54066604 17.29068866 9.50170898 22.4465332 C9.50549568 23.81883803 9.51099861 25.19113902 9.51808167 26.56343079 C9.53202257 30.28326964 9.52086992 34.00264507 9.50437045 37.72245812 C9.4904695 41.63294306 9.49698692 45.54340243 9.50050354 49.4539032 C9.50320521 56.03192548 9.48974593 62.60976531 9.46655273 69.18774414 C9.44006489 76.75160718 9.43815715 84.31516289 9.4499411 91.87905627 C9.46080036 99.18970113 9.45446069 106.50023675 9.44038582 113.81087303 C9.43468379 116.90332871 9.43466273 119.99570289 9.43945122 123.08815956 C9.48363166 161.47073283 9.48363166 161.47073283 2.375 178.1875 C2.02945068 179.0213623 1.68390137 179.85522461 1.32788086 180.71435547 C-3.82529782 192.7249682 -10.89135478 202.61969343 -20 212 C-20.67289062 212.74636719 -21.34578125 213.49273437 -22.0390625 214.26171875 C-31.99557483 224.94539209 -44.41990623 231.94915811 -58 237 C-59.02996094 237.38929688 -60.05992187 237.77859375 -61.12109375 238.1796875 C-74.53375602 242.95871151 -87.58688312 243.29534349 -101.65136719 243.2746582 C-103.61730135 243.27901261 -105.58323383 243.28419817 -107.54916382 243.29014587 C-112.85929484 243.30347008 -118.1693544 243.3041218 -123.47949886 243.30158257 C-127.92733616 243.30050818 -132.37515928 243.30540826 -136.82299352 243.310188 C-147.32536598 243.32126088 -157.82770266 243.32173338 -168.33007812 243.31567383 C-179.12958489 243.30963818 -189.92896124 243.32193983 -200.72844577 243.3432439 C-210.03162929 243.36091485 -219.3347715 243.36685254 -228.63797116 243.36360615 C-234.1805255 243.36180158 -239.72298683 243.36434626 -245.26552582 243.37832069 C-250.48265409 243.39098381 -255.69958057 243.38887544 -260.91670609 243.37590981 C-262.81926418 243.37356267 -264.72183686 243.37621089 -266.6243782 243.38453293 C-298.10574888 243.51218819 -323.75976397 233.94588152 -346.5 211.9375 C-356.88544636 201.54901429 -363.88778253 189.72903686 -369 176 C-369.38929688 174.98164063 -369.77859375 173.96328125 -370.1796875 172.9140625 C-374.84719272 159.93362828 -375.37309856 146.90497478 -375.37060547 133.2590332 C-375.37503256 130.54251794 -375.41163224 127.82756331 -375.44921875 125.11132812 C-375.45507917 123.36719297 -375.45905374 121.62305023 -375.4609375 119.87890625 C-375.47530853 119.0757045 -375.48967957 118.27250275 -375.50448608 117.44496155 C-375.46165091 112.16533297 -374.47075725 109.20327687 -371 105 C-368.07327328 102.62697833 -366.31690796 102.04033374 -362.5625 101.5625 C-357.14481257 102.22783004 -354.30166529 104.44036563 -350.84912109 108.57714844 C-348.4686841 112.98350263 -348.49752111 116.22489253 -348.6015625 121.140625 C-348.59681817 122.95312627 -348.59159344 124.76562634 -348.5859375 126.578125 C-348.60051638 129.39476513 -348.62450495 132.2108911 -348.66015625 135.02734375 C-348.87522513 156.6878527 -343.53522469 176.74152736 -328.25244141 192.82250977 C-313.32669645 207.9431144 -295.39043725 216.32771099 -274.12675142 216.51720357 C-271.39583453 216.51999003 -268.66542809 216.50314851 -265.93457031 216.48583984 C-263.94875336 216.4879901 -261.96293766 216.49187429 -259.97712708 216.49734497 C-254.62402348 216.50697199 -249.27125756 216.49182012 -243.91819477 216.47143888 C-238.29749804 216.45376707 -232.67681016 216.45739488 -227.05609131 216.4581604 C-217.62473965 216.45629241 -208.19351737 216.43899351 -198.76220703 216.41162109 C-187.87507926 216.38013925 -176.98809282 216.36962648 -166.10092282 216.3710922 C-154.47891732 216.37244524 -142.8569659 216.35855568 -131.23497677 216.34019899 C-127.89803548 216.33594694 -124.56110298 216.33451811 -121.22415924 216.33372116 C-115.97420817 216.33170524 -110.7243747 216.31943839 -105.47446251 216.29938889 C-103.55326496 216.29357165 -101.63205386 216.29108147 -99.71084785 216.29224396 C-76.82264447 216.30084916 -56.68046121 211.35351593 -39.7890625 194.84375 C-23.81003539 178.55140864 -17.86050281 159.79630508 -17.84228516 137.35717773 C-17.83761051 135.97673381 -17.83246588 134.59629141 -17.82688904 133.21585083 C-17.81565574 130.25412073 -17.80719896 127.29240041 -17.80076981 124.33065605 C-17.79004471 119.64472127 -17.76979024 114.9588575 -17.74765015 110.27296448 C-17.68586979 96.95194741 -17.63167933 83.6309362 -17.59863281 70.30981445 C-17.58028119 62.94430157 -17.5513454 55.57890942 -17.5106281 48.2134853 C-17.48958071 44.31997574 -17.47410392 40.42661808 -17.47182083 36.53304863 C-17.46967174 32.87295981 -17.45377614 29.21318813 -17.42743111 25.55319595 C-17.41683069 23.57442761 -17.4209874 21.59559736 -17.4256134 19.61680603 C-17.41452042 18.43227844 -17.40342743 17.24775085 -17.39199829 16.02732849 C-17.38868814 15.00216849 -17.385378 13.9770085 -17.38196754 12.92078304 C-16.74466798 8.04755808 -14.97212971 4.85909137 -11.3125 1.625 C-6.98517492 -0.49783872 -4.78843042 -0.53204782 0 0 Z " fill="#FBFBFB" transform="translate(439,205)"/>
<path d="M0 0 C0.81392595 -0.00297112 1.62785191 -0.00594224 2.46644229 -0.0090034 C5.18586523 -0.01765446 7.90524397 -0.01919564 10.62467957 -0.02069092 C12.5782531 -0.02532186 14.53182574 -0.0303469 16.48539734 -0.03573608 C21.789733 -0.04884082 27.094056 -0.05530201 32.39840531 -0.05974674 C35.71827949 -0.06268233 39.03815024 -0.06678818 42.35802269 -0.07125092 C52.76177956 -0.08492463 63.16552857 -0.09459027 73.5692938 -0.09845281 C85.54651074 -0.10292469 97.52361307 -0.12043266 109.50079519 -0.1494534 C118.77754057 -0.1711438 128.0542539 -0.1811611 137.33102435 -0.18249393 C142.8619714 -0.18353727 148.39281069 -0.18934341 153.92373085 -0.20731354 C159.13666736 -0.22392043 164.34941659 -0.22588914 169.5623703 -0.21717453 C171.46289513 -0.21641069 173.36343055 -0.22065925 175.26392937 -0.23063278 C190.61707191 -0.30639709 205.63787479 0.67951628 219.94963074 6.76544189 C220.78349304 7.11099121 221.61735535 7.45654053 222.47648621 7.81256104 C234.48709894 12.96573972 244.38182417 20.03179667 253.76213074 29.14044189 C254.50849792 29.81333252 255.25486511 30.48622314 256.02384949 31.17950439 C271.91181633 45.98609129 283.08513132 68.97634687 284.32463074 90.76544189 C284.17809688 94.10754104 283.50340313 96.057932 281.44963074 98.70294189 C277.52001233 102.26701441 274.15209028 102.55059584 269.04728699 102.48419189 C265.1947106 101.90465904 263.32611859 99.94861906 260.76213074 97.14044189 C258.23387062 92.73186772 257.0623723 88.59441153 256.01213074 83.64044189 C253.10310771 71.15708958 247.38007734 60.67342144 238.76213074 51.14044189 C238.13564636 50.43274658 237.50916199 49.72505127 236.86369324 48.99591064 C224.8440567 36.16678838 206.35068071 27.60742002 188.7751627 27.00342751 C187.29058562 26.99283477 185.80596465 26.98751593 184.3213501 26.98654175 C183.49769705 26.98215949 182.674044 26.97777724 181.82543176 26.97326219 C179.07914993 26.95996087 176.33290011 26.95371491 173.58659363 26.9475708 C171.61154539 26.93966289 169.63649858 26.93139351 167.66145325 26.92279053 C161.18591171 26.89664647 154.71036397 26.88126879 148.23478699 26.86700439 C145.99921096 26.86164126 143.76363497 26.85626375 141.52805901 26.85087204 C132.22286698 26.82925299 122.91767662 26.81051951 113.61246586 26.79924965 C100.31137183 26.78303013 87.01057078 26.74988937 73.70958716 26.6928488 C64.3385729 26.65404266 54.96763666 26.63460425 45.59654421 26.62932909 C40.009105 26.6256898 34.42197881 26.61382051 28.83462715 26.58122635 C23.57070553 26.55095811 18.30728329 26.54490033 13.043293 26.55661011 C11.12298271 26.55682929 9.20264795 26.54865464 7.2824192 26.53095627 C-13.83157342 26.34711818 -32.15283017 31.83049201 -48.23786926 46.14044189 C-49.26847473 47.02989502 -49.26847473 47.02989502 -50.31990051 47.93731689 C-61.94738517 58.67037966 -71.19785215 75.65435911 -72.42310715 91.54245377 C-72.49390392 94.25804874 -72.5049958 96.96740131 -72.49324036 99.68389893 C-72.49867104 101.22201233 -72.49867104 101.22201233 -72.50421143 102.79119873 C-72.51107595 105.00534301 -72.51361642 107.2195041 -72.51226425 109.4336586 C-72.5112954 112.93937808 -72.52428233 116.44479404 -72.54124451 119.95046997 C-72.58741999 129.91334736 -72.61213639 139.87619155 -72.61872864 149.83917236 C-72.62374065 155.94338914 -72.64796841 162.04728558 -72.68405533 168.15139389 C-72.69385396 170.47418165 -72.69618496 172.79701345 -72.69088364 175.11981583 C-72.68381997 178.36548461 -72.70107974 181.61019567 -72.72370911 184.85577393 C-72.71553665 185.81281219 -72.7073642 186.76985046 -72.69894409 187.75588989 C-72.76882708 193.38956317 -73.43487752 196.69523544 -77.23786926 201.14044189 C-80.45514195 203.85724994 -82.51301251 205.02182897 -86.67536926 205.70294189 C-91.11138159 205.00251889 -94.15847822 203.43108404 -97.23786926 200.14044189 C-99.83120658 195.35924415 -99.52663467 190.57193894 -99.51252747 185.27984619 C-99.5176384 184.2904454 -99.52274933 183.30104462 -99.52801514 182.28166199 C-99.54191637 179.00926662 -99.54095244 175.73708205 -99.53865051 172.46466064 C-99.54254014 170.1784304 -99.54687537 167.89220088 -99.55163574 165.60597229 C-99.5591013 160.80681014 -99.5588064 156.00772152 -99.55354309 151.20855713 C-99.54778017 145.09732976 -99.56460069 138.9864086 -99.58788776 132.87523174 C-99.60272547 128.14704159 -99.60348269 123.4189232 -99.60037804 118.69071388 C-99.60088728 116.44036063 -99.60604948 114.19000293 -99.61618996 111.93967247 C-99.73231506 82.53778471 -93.66089309 57.91372529 -74.23786926 35.14044189 C-73.47474426 34.12981689 -72.71161926 33.11919189 -71.92536926 32.07794189 C-53.96048154 12.44190182 -26.60311072 -0.03061208 0 0 Z " fill="#FBFBFB" transform="translate(163.2378692626953,63.85955810546875)"/>
<path d="M0 0 C4.89733984 2.80039406 8.82110784 6.44576197 12.875 10.3125 C14.11899989 11.48391433 15.36378488 12.6544955 16.609375 13.82421875 C17.19912109 14.37899902 17.78886719 14.9337793 18.39648438 15.50537109 C20.85810624 17.79983654 23.39771349 19.99759834 25.9453125 22.1953125 C28.66924703 24.58781774 31.33343269 27.04405942 34 29.5 C37.3002483 32.53892335 40.6094941 35.56156156 44 38.5 C47.92533991 41.90196126 51.74342196 45.41781957 55.56054688 48.93994141 C58.4949481 51.64164648 61.46770783 54.28397423 64.5 56.875 C71.72183737 63.25428967 71.72183737 63.25428967 72.33984375 67.1328125 C72.57971203 72.94721968 71.50023583 76.27487523 67.5234375 80.609375 C63.96632051 84.28018979 60.16976754 87.64878293 56.30078125 90.984375 C53.4922698 93.44480269 50.74538121 95.96974992 48 98.5 C44.09036721 102.10032448 40.14133061 105.64418014 36.125 109.125 C33.38176506 111.54550142 30.69118757 114.02204178 28 116.5 C24.05014475 120.13612179 20.07032201 123.72820504 16.0078125 127.23828125 C12.71663368 130.12606656 9.51076314 133.10867296 6.296875 136.08203125 C1.93828932 139.72159854 -1.23581336 140.40187385 -6.81640625 140.24609375 C-9.93381716 139.89475764 -11.64829161 139.07503682 -14 137 C-16.53761163 133.23733448 -17.76231794 129.64407386 -17.51171875 125.046875 C-16.41800408 120.67201631 -13.17826668 118.02574924 -10 115 C-9.44731445 114.47035645 -8.89462891 113.94071289 -8.32519531 113.39501953 C-2.02235539 107.37352667 4.37271926 101.45593876 10.98046875 95.76953125 C13.69486456 93.39115349 16.34562596 90.94480743 19 88.5 C25.52686742 82.49422351 32.15829867 76.64440359 39 71 C37.64571539 67.89587239 36.22865747 66.08524276 33.625 63.9375 C30.00279871 60.87509346 26.4834801 57.71842082 23 54.5 C19.70028099 51.46051603 16.39048959 48.43842431 13 45.5 C9.07422188 42.09765896 5.25725483 38.57987642 1.43725586 35.06005859 C-1.48549765 32.37207374 -4.43550437 29.72408128 -7.4375 27.125 C-15.68603229 19.94190313 -15.68603229 19.94190313 -17 16 C-17.34231315 10.69414624 -17.53140599 7.26204172 -14 3 C-9.92111125 -0.47905217 -5.16030567 -1.07612286 0 0 Z " fill="#FCFCFC" transform="translate(158,186)"/>
<path d="M0 0 C1.39836594 -0.01268921 1.39836594 -0.01268921 2.82498169 -0.02563477 C4.34852516 -0.01652573 4.34852516 -0.01652573 5.90284729 -0.00723267 C6.97804626 -0.01248962 8.05324524 -0.01774658 9.161026 -0.02316284 C12.71907533 -0.03637819 16.27667808 -0.02761838 19.83473206 -0.01748657 C22.30568528 -0.01950701 24.77663793 -0.02241819 27.24758911 -0.02618408 C32.42846855 -0.03060965 37.6091929 -0.02416925 42.79005432 -0.01016235 C49.43263581 0.00692049 56.07485343 -0.00290481 62.71742153 -0.02087975 C67.82091006 -0.03171878 72.9243123 -0.02827048 78.02780342 -0.02049637 C80.4770366 -0.01849424 82.92627759 -0.02095406 85.37550163 -0.02793503 C88.7988905 -0.0355502 92.22168984 -0.02394315 95.64503479 -0.00723267 C96.65870621 -0.01330536 97.67237762 -0.01937805 98.71676636 -0.02563477 C105.29866502 0.03391132 108.77676778 0.95755989 113.65113831 5.56845093 C115.84209953 9.22005298 115.99866342 12.27591666 115.33863831 16.38095093 C114.13565595 19.73663854 113.11817903 21.72166525 110.39746094 24.02267456 C105.83141421 26.05023683 101.52883864 25.81507888 96.5849762 25.8008728 C95.50148392 25.80934235 94.41799164 25.81781189 93.30166626 25.82653809 C89.72142284 25.84992989 86.1416086 25.85092971 82.56129456 25.84970093 C80.07174507 25.85680093 77.58219723 25.86449969 75.09265137 25.87277222 C69.87487743 25.88622191 64.65725481 25.88778341 59.43946838 25.88192749 C54.0821744 25.87602067 48.72537464 25.89011751 43.36817932 25.92294312 C36.89788046 25.96205725 30.42800649 25.97674454 23.95759392 25.97215271 C21.49242262 25.97384646 19.02724343 25.98351337 16.5621357 26.001297 C13.1148278 26.02343018 9.66899777 26.01381186 6.22169495 25.9961853 C4.69491119 26.01608017 4.69491119 26.01608017 3.13728333 26.03637695 C-1.41599245 25.98227863 -4.63643123 25.90354342 -8.25561523 22.95968628 C-11.54729574 19.43131243 -12.50271552 17.80876654 -13.03636169 13.00595093 C-12.51828871 7.99791207 -10.5429893 5.05783549 -6.8120718 1.73288536 C-4.3037492 0.15615604 -2.9396399 0.00411316 0 0 Z " fill="#FEFEFE" transform="translate(255.66136169433594,300.6190490722656)"/>
</svg>
