<?xml version="1.0" encoding="UTF-8"?>
<svg version="1.1" xmlns="http://www.w3.org/2000/svg" width="512" height="512">
<path d="M0 0 C2.81708331 1.6283674 5.63703821 3.25174234 8.45678711 4.87548828 C13.82927369 7.97051652 19.19871292 11.07078615 24.56713867 14.17285156 C29.97161856 17.29498433 35.37838623 20.41315032 40.78491211 23.53173828 C42.95158961 24.7817195 45.11825628 26.03171949 47.28491211 27.28173828 C48.89366211 28.20986328 48.89366211 28.20986328 50.53491211 29.15673828 C53.78491211 31.03173828 57.03491211 32.90673828 60.28491211 34.78173828 C61.35773438 35.40064941 62.43055664 36.01956055 63.53588867 36.65722656 C65.69938687 37.90544862 67.86279854 39.15382067 70.02612305 40.40234375 C75.49056228 43.55579084 80.95654856 46.70649924 86.42553711 49.85205078 C90.78656172 52.36039449 95.14292826 54.87654854 99.49584961 57.39892578 C103.61208234 59.78387839 107.74266817 62.14037831 111.88647461 64.47705078 C122.32194619 70.41547791 131.51769499 76.25300438 139.78491211 85.03173828 C140.45264648 85.71623047 141.12038086 86.40072266 141.80834961 87.10595703 C154.33403629 100.58884684 162.12945272 119.13775311 162.05233765 137.60586548 C162.05686876 138.41968229 162.06139987 139.2334991 162.06606829 140.07197702 C162.07863175 142.77297888 162.07709716 145.47377702 162.07543945 148.17480469 C162.08142984 150.12221533 162.08823656 152.06962362 162.09579468 154.01702881 C162.11341242 159.29007491 162.11814835 164.56305602 162.11942625 169.83612871 C162.1208511 173.13674495 162.12512707 176.43734484 162.13042068 179.737957 C162.14890881 191.27062777 162.15709305 202.8032524 162.15551758 214.3359375 C162.15431735 225.05647774 162.17539962 235.77681628 162.2070049 246.49730551 C162.2332314 255.72483084 162.24388217 264.95229057 162.24260676 274.17985284 C162.24209889 279.68053752 162.2476846 285.18104293 162.26896286 290.68169022 C162.28845219 295.86106353 162.28839708 301.04008856 162.2739296 306.21947479 C162.27185343 308.10955443 162.27647038 309.99965649 162.28865051 311.88969803 C162.37518377 326.25983634 160.93112632 339.36140603 154.03491211 352.28173828 C153.69057129 352.94447754 153.34623047 353.6072168 152.99145508 354.29003906 C140.3178388 378.07540258 119.5302354 389.14560445 97.01147461 401.91845703 C90.57231091 405.57156936 84.1717057 409.28773729 77.78491211 413.03173828 C68.55719749 418.43579293 59.28496005 423.75826494 49.99389648 429.05224609 C41.89746954 433.66676703 33.82691894 438.32281226 25.78491211 443.03173828 C15.90302028 448.81638144 5.98129442 454.52898954 -3.97338867 460.18725586 C-9.39168262 463.26811145 -14.79880351 466.3634323 -20.16430664 469.53564453 C-29.58714167 475.08386296 -38.58435316 480.15366132 -49.21508789 483.03173828 C-49.85760498 483.21140137 -50.50012207 483.39106445 -51.16210938 483.57617188 C-86.03930689 492.45228254 -113.63062649 474.72207721 -142.43017578 458.06347656 C-145.24725909 456.43510916 -148.06721399 454.81173423 -150.88696289 453.18798828 C-156.25944947 450.09296004 -161.6288887 446.99269041 -166.99731445 443.890625 C-172.40179434 440.76849223 -177.80856201 437.65032624 -183.21508789 434.53173828 C-185.38176539 433.28175707 -187.54843206 432.03175707 -189.71508789 430.78173828 C-190.78758789 430.16298828 -191.86008789 429.54423828 -192.96508789 428.90673828 C-196.21508789 427.03173828 -199.46508789 425.15673828 -202.71508789 423.28173828 C-204.32432129 422.35337158 -204.32432129 422.35337158 -205.96606445 421.40625 C-208.12956265 420.15802794 -210.29297432 418.90965589 -212.45629883 417.66113281 C-217.92073806 414.50768572 -223.38672434 411.35697733 -228.85571289 408.21142578 C-233.2167375 405.70308207 -237.57310404 403.18692802 -241.92602539 400.66455078 C-246.04225812 398.27959817 -250.17284395 395.92309826 -254.31665039 393.58642578 C-264.75872965 387.64423847 -273.93139806 381.80107157 -282.21508789 373.03173828 C-282.8712207 372.38205078 -283.52735352 371.73236328 -284.20336914 371.06298828 C-296.6702997 358.01555763 -304.55747227 338.40933197 -304.48251343 320.45761108 C-304.48704454 319.64379428 -304.49157565 318.82997747 -304.49624407 317.99149954 C-304.50880753 315.29049768 -304.50727294 312.58969954 -304.50561523 309.88867188 C-304.51160562 307.94126123 -304.51841234 305.99385295 -304.52597046 304.04644775 C-304.5435882 298.77340166 -304.54832413 293.50042054 -304.54960203 288.22734785 C-304.55102688 284.92673162 -304.55530285 281.62613173 -304.56059647 278.32551956 C-304.57908459 266.79284879 -304.58726883 255.26022416 -304.58569336 243.72753906 C-304.58449313 233.00699882 -304.6055754 222.28666029 -304.63718069 211.56617105 C-304.66340718 202.33864572 -304.67405795 193.111186 -304.67278254 183.88362372 C-304.67227467 178.38293904 -304.67786038 172.88243363 -304.69913864 167.38178635 C-304.71862798 162.20241303 -304.71857286 157.023388 -304.70410538 151.84400177 C-304.70202921 149.95392213 -304.70664616 148.06382007 -304.71882629 146.17377853 C-304.80561556 131.76112653 -303.35065798 118.66213183 -296.40258789 105.71923828 C-295.88112183 104.72017456 -295.88112183 104.72017456 -295.34912109 103.70092773 C-282.6386929 79.82362529 -262.10544931 68.99941239 -239.44165039 56.14501953 C-233.00247611 52.49192411 -226.60192207 48.77567037 -220.21508789 45.03173828 C-211.62018439 39.99938496 -202.99196101 35.02784438 -194.34008789 30.09423828 C-180.93878793 22.45208158 -167.57255765 14.75028222 -154.21508789 7.03173828 C-151.99249398 5.7477762 -149.76983727 4.46392281 -147.54711914 3.18017578 C-146.44674316 2.5445874 -145.34636719 1.90899902 -144.21264648 1.25415039 C-142.02245351 -0.00959645 -139.83138516 -1.27182751 -137.6394043 -2.5324707 C-132.54547263 -5.46227577 -127.46233692 -8.40672891 -122.40649414 -11.40185547 C-112.94304181 -16.9753251 -103.89089148 -22.07798319 -93.21508789 -24.96826172 C-92.5725708 -25.1479248 -91.93005371 -25.32758789 -91.26806641 -25.51269531 C-56.39086889 -34.38880598 -28.79954929 -16.65860065 0 0 Z M-118.96801758 34.12597656 C-124.32494315 37.27004882 -129.70730225 40.36971444 -135.09008789 43.46923828 C-136.16935547 44.09121094 -137.24862305 44.71318359 -138.3605957 45.35400391 C-140.55123755 46.61640768 -142.7419929 47.87861451 -144.93286133 49.140625 C-150.36168731 52.26853976 -155.7882807 55.40032276 -161.21508789 58.53173828 C-163.38174372 59.78175707 -165.54841039 61.03175707 -167.71508789 62.28173828 C-168.78758789 62.90048828 -169.86008789 63.51923828 -170.96508789 64.15673828 C-180.71508789 69.78173828 -180.71508789 69.78173828 -183.96679688 71.65771484 C-186.12777777 72.90444084 -188.28874787 74.15118555 -190.44970703 75.39794922 C-197.07425616 79.21993896 -203.69900303 83.04158483 -210.32470703 86.86157227 C-212.523926 88.13050757 -214.72234634 89.40082811 -216.91992188 90.67260742 C-221.84866275 93.52374894 -226.78375798 96.35921214 -231.75415039 99.13720703 C-246.33400287 107.3205676 -257.2700038 115.06681374 -262.67211914 131.63330078 C-264.01494445 137.56491763 -264.3407353 143.45387231 -264.34880066 149.51873779 C-264.35106622 150.22764451 -264.35333177 150.93655123 -264.35566598 151.66693997 C-264.3619455 154.01869968 -264.36118054 156.37040086 -264.36035156 158.72216797 C-264.36334685 160.41814243 -264.36675023 162.11411621 -264.37052917 163.81008911 C-264.37933618 168.40118744 -264.38170591 172.99226711 -264.38234496 177.58337307 C-264.38305739 180.45663838 -264.38519537 183.329899 -264.38784218 186.20316315 C-264.39708501 196.24107665 -264.40117844 206.27897691 -264.40039062 216.31689453 C-264.39979027 225.65083465 -264.41033654 234.9847169 -264.42613429 244.31864238 C-264.4392415 252.35119927 -264.44457318 260.38373733 -264.44393522 268.41630483 C-264.44368114 273.20536032 -264.44648195 277.99436435 -264.45711327 282.78340912 C-264.46684781 287.29128554 -264.46683697 291.79906188 -264.45959663 296.30694199 C-264.45855739 297.95316846 -264.46087405 299.59940135 -264.46695709 301.24561691 C-264.52413472 317.80318238 -263.44121415 333.50932941 -251.33178711 346.10864258 C-244.12128753 352.6596351 -234.69537914 357.15226783 -226.27758789 361.96923828 C-225.16077637 362.61111084 -224.04396484 363.2529834 -222.89331055 363.91430664 C-214.04493425 368.99810356 -205.17898302 374.05129091 -196.31448364 379.10690308 C-187.27452283 384.26360224 -178.27366144 389.4841575 -169.29272461 394.74291992 C-161.62906347 399.22363332 -153.92807725 403.63678069 -146.21508789 408.03173828 C-137.33513045 413.09211717 -128.47720587 418.18769728 -119.65258789 423.34423828 C-118.67604248 423.91376221 -117.69949707 424.48328613 -116.69335938 425.07006836 C-112.05689968 427.77633313 -107.42931488 430.49603606 -102.81665039 433.24267578 C-101.96401611 433.74629639 -101.11138184 434.24991699 -100.23291016 434.76879883 C-98.6641242 435.69553218 -97.09909413 436.6286729 -95.5390625 437.57006836 C-84.75474704 443.91472745 -73.75573055 446.36171335 -61.37133789 443.92236328 C-47.87222309 440.11320713 -35.42933867 430.98861919 -23.4621582 423.9375 C-18.10523263 420.79342774 -12.72287353 417.69376212 -7.34008789 414.59423828 C-6.26082031 413.97226562 -5.18155273 413.35029297 -4.06958008 412.70947266 C-1.87893824 411.44706888 0.31181711 410.18486205 2.50268555 408.92285156 C7.93151153 405.7949368 13.35810492 402.6631538 18.78491211 399.53173828 C20.95156794 398.28171949 23.11823461 397.0317195 25.28491211 395.78173828 C26.35741211 395.16298828 27.42991211 394.54423828 28.53491211 393.90673828 C38.28491213 388.28173827 38.28491213 388.28173827 41.53662109 386.40576172 C43.69760199 385.15903572 45.85857209 383.91229101 48.01953125 382.66552734 C54.64408038 378.8435376 61.26882725 375.02189173 67.89453125 371.2019043 C70.09375021 369.93296899 72.29217056 368.66264845 74.48974609 367.39086914 C79.41848697 364.53972762 84.35358219 361.70426442 89.32397461 358.92626953 C103.90382709 350.74290896 114.83982802 342.99666283 120.24194336 326.43017578 C121.58476867 320.49855894 121.91055952 314.60960425 121.91862488 308.54473877 C121.92089043 307.83583205 121.92315599 307.12692533 121.9254902 306.39653659 C121.93176972 304.04477688 121.93100476 301.6930757 121.93017578 299.34130859 C121.93317107 297.64533413 121.93657445 295.94936035 121.94035339 294.25338745 C121.94916039 289.66228912 121.95153013 285.07120945 121.95216918 280.48010349 C121.95288161 277.60683818 121.95501959 274.73357756 121.9576664 271.86031342 C121.96690923 261.82239991 121.97100266 251.78449965 121.97021484 241.74658203 C121.96961449 232.41264191 121.98016076 223.07875967 121.99595851 213.74483418 C122.00906572 205.71227729 122.0143974 197.67973923 122.01375943 189.64717174 C122.01350536 184.85811625 122.01630617 180.06911221 122.02693748 175.28006744 C122.03667203 170.77219102 122.03666119 166.26441468 122.02942085 161.75653458 C122.02838161 160.1103081 122.03069827 158.46407521 122.03678131 156.81785965 C122.0955733 139.79280568 120.748352 124.16286228 108.38256836 111.21923828 C103.22510271 106.87610931 97.32366543 103.76447491 91.44165039 100.51269531 C87.47717034 98.30275817 83.55514774 96.02084705 79.62817383 93.74511719 C76.28903425 91.81041405 72.94578184 89.88300311 69.60131836 87.95751953 C62.99376176 84.1525401 56.38903518 80.34267318 49.78491211 76.53173828 C47.618259 75.28171478 45.45159232 74.03171481 43.28491211 72.78173828 C30.28491211 65.28173828 17.28491211 57.78173828 4.28491211 50.28173828 C3.21128418 49.66234375 2.13765625 49.04294922 1.03149414 48.40478516 C-1.123801 47.16133319 -3.27907462 45.91784392 -5.43432617 44.67431641 C-10.43846463 41.78710954 -15.4427931 38.90023398 -20.44793701 36.01477051 C-22.1985003 35.00554724 -23.948992 33.99619992 -25.69946289 32.98681641 C-27.87900954 31.73006169 -30.05868622 30.47353242 -32.23852539 29.21728516 C-33.73899414 28.35200195 -33.73899414 28.35200195 -35.26977539 27.46923828 C-36.24479004 26.90736816 -37.21980469 26.34549805 -38.22436523 25.76660156 C-40.31311422 24.55495664 -42.39636231 23.33380095 -44.4753418 22.10546875 C-46.06354736 21.16791748 -46.06354736 21.16791748 -47.68383789 20.21142578 C-48.63452148 19.64665527 -49.58520508 19.08188477 -50.56469727 18.5 C-75.38103194 4.75226265 -97.77720046 21.64024716 -118.96801758 34.12597656 Z " fill="#FFFFFF" transform="translate(327.215087890625,26.96826171875)"/>
<path d="M0 0 C1.00546875 -0.03738281 2.0109375 -0.07476562 3.046875 -0.11328125 C9.66289218 0.76616494 14.49869018 5.09516187 19.375 9.375 C20.51288997 10.35562062 21.65091463 11.33608497 22.7890625 12.31640625 C23.36301758 12.81414551 23.93697266 13.31188477 24.52832031 13.82470703 C27.24984892 16.17652146 30.0006536 18.49333761 32.75 20.8125 C33.83348782 21.72898406 34.91682086 22.64565113 36 23.5625 C36.53625 24.01625 37.0725 24.47 37.625 24.9375 C47.91666667 33.64583333 58.20833333 42.35416667 68.5 51.0625 C69.03705566 51.51665283 69.57411133 51.97080566 70.12744141 52.4387207 C71.20375057 53.35000443 72.27895873 54.26259023 73.35302734 55.17651367 C76.16090556 57.56274118 78.98790801 59.91916784 81.8515625 62.23828125 C82.44130859 62.72167969 83.03105469 63.20507812 83.63867188 63.703125 C84.76059998 64.62186928 85.88912137 65.53264653 87.02539062 66.43359375 C91.69294057 70.28092948 94.37500454 74.59094558 95.125 80.625 C95.64041173 87.00322014 93.75829525 92.05005713 90.25 97.3125 C86.99107034 100.85187167 83.15028561 103.76727151 79.40234375 106.765625 C75.99419632 109.49730518 72.6828598 112.33578629 69.375 115.1875 C63.23038271 120.47576263 57.05313586 125.72362549 50.85888672 130.95361328 C48.69719101 132.77940968 46.537188 134.60720141 44.37744141 136.43530273 C43.29280144 137.35316263 42.20784056 138.27064343 41.12255859 139.18774414 C38.42026237 141.47183751 35.72289747 143.76129013 33.03515625 146.0625 C27.31062458 150.95462476 21.52477937 155.75754506 15.625 160.4375 C15.03275635 160.91123047 14.4405127 161.38496094 13.83032227 161.87304688 C7.53690004 166.82081502 2.064622 167.0256214 -5.75 166.3125 C-11.08312001 164.73231629 -14.81521649 162.09511017 -17.75 157.3125 C-20.99542036 151.26790458 -21.29612964 145.96853328 -19.75 139.3125 C-15.74015821 129.10562998 -4.96959974 122.40724772 3.30859375 115.71875 C6.62387824 113.00664476 9.87873364 110.23148358 13.125 107.4375 C18.33613369 102.95240225 23.56452609 98.48936473 28.82299805 94.05981445 C31.72440211 91.613887 34.59192453 89.13545604 37.4375 86.625 C40.25 84.3125 40.25 84.3125 42.25 84.3125 C42.25 83.6525 42.25 82.9925 42.25 82.3125 C41.65775635 82.03865479 41.0655127 81.76480957 40.45532227 81.48266602 C38.32882035 80.35432286 36.75894637 79.18170306 34.96484375 77.58984375 C34.35769531 77.05617188 33.75054687 76.5225 33.125 75.97265625 C32.485625 75.40417969 31.84625 74.83570313 31.1875 74.25 C29.83308686 73.05999539 28.47761261 71.87119743 27.12109375 70.68359375 C26.45835449 70.10335449 25.79561523 69.52311523 25.11279297 68.92529297 C22.6994934 66.83587528 20.23339328 64.81788675 17.75 62.8125 C12.66890926 58.69923607 7.74043725 54.42601362 2.81884766 50.12475586 C-1.01394488 46.78469479 -4.90361956 43.54889299 -8.875 40.375 C-14.94717524 35.4216208 -19.40214813 31.39961123 -20.75 23.3125 C-20.94728285 16.2219221 -19.43352723 10.72041277 -14.75 5.3125 C-9.86238974 1.500164 -6.13824301 0.14800332 0 0 Z " fill="#FFFFFF" transform="translate(149.75,172.6875)"/>
<path d="M0 0 C0.91446899 -0.0049649 1.82893799 -0.00992981 2.77111816 -0.01504517 C5.78972126 -0.02962359 8.80827181 -0.03646142 11.8269043 -0.04199219 C13.93051657 -0.04774698 16.03412883 -0.05350467 18.13774109 -0.05926514 C22.54674524 -0.06976268 26.95573121 -0.07561358 31.36474609 -0.07910156 C37.00368555 -0.08458513 42.64238341 -0.10861566 48.28124714 -0.13707352 C52.62650751 -0.15573147 56.97171003 -0.16090717 61.31700706 -0.16243744 C63.39535023 -0.1654571 65.47369254 -0.17346236 67.55199623 -0.18662262 C70.46453681 -0.20374982 73.37649146 -0.20178658 76.2890625 -0.1953125 C77.14076523 -0.20452728 77.99246796 -0.21374207 78.86997986 -0.22323608 C87.27107544 -0.16497927 93.8341542 2.15666396 99.83862305 8.16113281 C103.15742639 13.08211707 104.09723032 18.299368 103.83862305 24.16113281 C102.39671436 31.06604766 99.54481962 35.17017813 93.7409668 39.10253906 C90.6562922 40.8190623 88.11599662 41.28831189 84.65264893 41.30830383 C83.80039734 41.31545914 82.94814575 41.32261444 82.07006836 41.32998657 C81.13807617 41.33267548 80.20608398 41.33536438 79.24584961 41.33813477 C77.76976227 41.34799156 77.76976227 41.34799156 76.26385498 41.35804749 C73.00231858 41.37778245 69.74082823 41.3894436 66.47924805 41.39941406 C64.80849842 41.40552735 64.80849842 41.40552735 63.10399628 41.41176414 C57.20857427 41.43262578 51.31317555 41.44692709 45.41772461 41.45629883 C39.33016879 41.46736305 33.24297851 41.50176321 27.15555191 41.54147053 C22.47319868 41.5676224 17.79093272 41.57598942 13.10851288 41.57958031 C10.8646574 41.58444997 8.62080592 41.5960747 6.37702179 41.6146183 C3.23404517 41.63897847 0.09201683 41.63805008 -3.05102539 41.63110352 C-3.97492065 41.64391357 -4.89881592 41.65672363 -5.85070801 41.66992188 C-12.52903984 41.61622013 -16.83163487 40.20895165 -21.8684082 35.59863281 C-27.16900647 28.70598206 -28.01923735 23.82886514 -27.16137695 15.16113281 C-25.58817152 8.80496054 -21.85778127 5.72388131 -16.4777832 2.29003906 C-11.21952639 -0.27258525 -5.72135671 0.00745611 0 0 Z " fill="#FFFFFF" transform="translate(279.161376953125,297.8388671875)"/>
</svg>
